M48
; DRILL file {KiCad (5.1.6)-1} date 01/06/23 15:30:23
; FORMAT={-:-/ absolute / inch / decimal}
; #@! TF.CreationDate,2023-01-06T15:30:23-08:00
; #@! TF.GenerationSoftware,Kicad,Pcbnew,(5.1.6)-1
; #@! TF.FileFunction,Plated,1,2,PTH
FMAT,2
INCH
T1C0.0157
T2C0.0315
T3C0.0394
T4C0.0398
T5C0.0400
T6C0.0433
T7C0.1150
T8C0.1260
%
G90
G05
T1
X3.591Y-4.511
X3.636Y-1.599
X3.64Y-3.984
X3.65Y-3.319
X3.652Y-4.554
X3.69Y-5.314
X3.707Y-2.679
X3.782Y-4.644
X3.791Y-4.929
X3.808Y-3.026
X3.872Y-3.796
X3.872Y-4.29
X3.885Y-4.484
X3.892Y-4.378
X3.908Y-4.762
X3.921Y-4.204
X4.0995Y-2.8935
X4.104Y-4.674
X4.121Y-4.484
X4.126Y-2.392
X4.126Y-5.116
X4.179Y-3.469
X4.225Y-2.261
X4.226Y-4.472
X4.266Y-2.43
X4.383Y-4.34
X4.389Y-3.831
X4.452Y-2.681
X4.478Y-4.971
X4.491Y-4.012
X4.496Y-4.274
X4.4965Y-3.18
X4.521Y-4.611
X4.523Y-4.414
X4.624Y-2.691
X4.647Y-4.4
X4.678Y-3.122
X4.683Y-3.062
X4.713Y-2.025
X4.713Y-2.249
X4.787Y-5.112
X4.819Y-3.249
X4.877Y-4.63
X4.888Y-4.406
X4.974Y-5.319
X4.985Y-4.218
X5.017Y-4.555
X5.025Y-5.028
X5.256Y-2.425
X5.374Y-3.254
X5.414Y-4.852
X5.479Y-1.574
X5.629Y-3.85
X5.641Y-4.481
X5.703Y-2.315
X5.719Y-2.216
X5.787Y-4.493
X5.801Y-2.497
X5.816Y-4.326
X5.877Y-4.223
X5.888Y-3.016
X5.931Y-2.212
X5.958Y-2.968
X5.983Y-3.244
X5.986Y-3.596
X6.024Y-4.904
X6.067Y-2.528
X6.296Y-4.892
X6.382Y-3.578
X6.388Y-5.294
X6.4538Y-2.5618
X6.4538Y-3.0218
X6.557Y-4.906
X6.56Y-3.366
X6.571Y-2.156
X6.608Y-4.426
X6.688Y-3.077
X6.688Y-3.456
X6.696Y-1.564
X6.777Y-3.1
X6.781Y-3.967
X6.819Y-4.892
X6.865Y-3.078
X6.924Y-3.025
X6.952Y-3.461
X6.977Y-3.681
X7.002Y-3.127
X7.073Y-4.93
X7.127Y-3.641
X7.145Y-3.212
X7.182Y-4.576
X7.2373Y-3.6217
X7.247Y-4.932
X7.272Y-2.882
X7.2734Y-3.5126
X7.31Y-4.638
X7.372Y-3.291
X7.389Y-3.945
X7.398Y-4.9
X7.407Y-4.352
X7.4389Y-3.5671
X7.439Y-3.895
X7.487Y-3.838
X7.531Y-3.786
X7.579Y-3.126
X7.5823Y-3.7307
X7.5846Y-4.1124
X7.5961Y-4.0579
X7.627Y-2.68
X7.627Y-3.674
X7.675Y-3.077
X7.721Y-3.021
X7.7677Y-2.9673
X7.816Y-2.914
X7.824Y-4.194
X7.996Y-4.729
X8.004Y-4.263
X8.021Y-5.274
X8.081Y-1.611
X8.116Y-2.68
X8.145Y-4.144
T2
X3.8806Y-5.052
X3.979Y-5.052
X6.143Y-5.013
X6.2414Y-5.013
X3.669Y-4.692
X3.969Y-4.692
X7.181Y-4.893
X7.481Y-4.893
X6.944Y-3.298
X6.944Y-3.598
X4.0165Y-2.4855
X4.3165Y-2.4855
X6.633Y-3.304
X6.733Y-3.304
X6.833Y-3.304
X6.665Y-4.89
X6.965Y-4.89
X4.473Y-4.819
X4.473Y-5.119
X4.2405Y-2.9825
X4.2405Y-3.2825
X4.0145Y-2.3625
X4.3145Y-2.3625
X4.295Y-4.3176
X4.295Y-4.416
X3.596Y-2.791
X3.596Y-3.091
X3.669Y-4.812
X3.969Y-4.812
X4.838Y-3.735
X4.838Y-4.035
X4.938Y-3.735
X4.938Y-4.035
X5.038Y-3.735
X5.038Y-4.035
X5.138Y-3.735
X5.138Y-4.035
X6.221Y-3.758
X6.221Y-4.058
X6.321Y-3.758
X6.321Y-4.058
X6.421Y-3.758
X6.421Y-4.058
X6.521Y-3.758
X6.521Y-4.058
X6.621Y-3.758
X6.621Y-4.058
X6.721Y-3.758
X6.721Y-4.058
X6.821Y-3.758
X6.821Y-4.058
X6.921Y-3.758
X6.921Y-4.058
X4.578Y-1.773
X4.578Y-2.073
X3.6615Y-1.7705
X3.9615Y-1.7705
X4.0495Y-1.772
X4.0495Y-1.872
X4.0495Y-1.972
X4.0495Y-2.072
X4.3495Y-1.772
X4.3495Y-1.872
X4.3495Y-1.972
X4.3495Y-2.072
X6.3646Y-5.013
X6.463Y-5.013
X3.72Y-2.79
X3.72Y-3.09
X3.661Y-1.892
X3.961Y-1.892
X6.092Y-2.274
X6.1904Y-2.274
X4.171Y-4.099
X4.171Y-4.399
X3.669Y-4.932
X3.969Y-4.932
X4.456Y-1.773
X4.456Y-2.073
X6.115Y-3.4486
X6.115Y-3.547
X5.663Y-1.7775
X5.663Y-2.0775
X3.9995Y-2.5935
X3.9995Y-2.8935
X4.0995Y-2.5935
X4.0995Y-2.8935
X4.1995Y-2.5935
X4.1995Y-2.8935
X4.2995Y-2.5935
X4.2995Y-2.8935
X4.8695Y-2.0215
X5.1695Y-2.0215
X7.7368Y-2.0174
X7.7368Y-2.1158
X6.094Y-1.897
X6.1924Y-1.897
X6.656Y-5.014
X6.7544Y-5.014
X3.659Y-5.052
X3.7574Y-5.052
X4.164Y-3.596
X4.164Y-3.896
X7.7248Y-1.7769
X7.7248Y-1.8556
X5.1526Y-4.752
X5.251Y-4.752
X4.8695Y-1.8975
X5.1695Y-1.8975
X4.939Y-4.88
X5.239Y-4.88
X8.055Y-2.179
X8.1337Y-1.8837
X6.8766Y-5.013
X6.975Y-5.013
X4.1185Y-2.9825
X4.1185Y-3.2825
X4.285Y-3.8156
X4.285Y-3.914
X7.3956Y-5.016
X7.494Y-5.016
X3.662Y-2.015
X3.962Y-2.015
X6.6634Y-2.1952
X6.7618Y-2.1952
X5.614Y-4.882
X5.914Y-4.882
X5.257Y-1.7765
X5.257Y-1.8765
X5.257Y-1.9765
X5.257Y-2.0765
X5.557Y-1.7765
X5.557Y-1.8765
X5.557Y-1.9765
X5.557Y-2.0765
X3.9965Y-2.982
X3.9965Y-3.282
X5.784Y-1.7775
X5.784Y-2.0775
X5.8286Y-4.759
X5.927Y-4.759
X4.931Y-4.752
X5.0294Y-4.752
X6.4342Y-1.7955
X6.4342Y-1.9924
X7.176Y-5.014
X7.2744Y-5.014
X4.942Y-5.0
X5.242Y-5.0
X4.8695Y-1.774
X5.1695Y-1.774
X4.3625Y-2.9825
X4.3625Y-3.2825
X6.092Y-2.151
X6.1904Y-2.151
X5.687Y-3.454
X5.687Y-3.754
X5.787Y-3.454
X5.787Y-3.754
X5.887Y-3.454
X5.887Y-3.754
X5.987Y-3.454
X5.987Y-3.754
X4.8695Y-2.1455
X5.1695Y-2.1455
X4.295Y-4.096
X4.295Y-4.1944
X5.607Y-4.759
X5.7054Y-4.759
X3.662Y-2.137
X3.962Y-2.137
X4.593Y-4.819
X4.593Y-5.119
X6.535Y-3.584
X6.835Y-3.584
X6.143Y-4.891
X6.443Y-4.891
X6.536Y-3.455
X6.836Y-3.455
X4.285Y-3.596
X4.285Y-3.6944
X6.095Y-1.775
X6.1934Y-1.775
X5.615Y-5.005
X5.915Y-5.005
T3
X4.298Y-4.693
X4.298Y-4.8899
X4.482Y-4.705
X4.582Y-4.705
X4.529Y-2.509
X5.029Y-2.509
X5.129Y-2.509
X7.913Y-1.763
X4.789Y-4.409
X6.389Y-4.409
X5.489Y-4.409
X5.589Y-4.409
X5.689Y-4.409
X5.789Y-4.409
X5.889Y-4.409
X5.989Y-4.409
X6.089Y-4.409
X3.596Y-2.35
X3.596Y-2.45
X3.596Y-2.55
X3.596Y-2.65
X7.189Y-2.509
X7.289Y-2.509
X5.889Y-2.509
X5.989Y-2.509
X4.989Y-4.409
X5.089Y-4.409
X5.189Y-4.409
X7.189Y-3.409
X7.189Y-3.509
X7.289Y-3.709
X6.689Y-2.509
X7.289Y-3.909
X7.9794Y-2.8037
X7.9794Y-2.9128
X7.9794Y-3.0218
X7.9794Y-3.1309
X7.9794Y-3.24
X7.9794Y-3.349
X7.9794Y-3.4581
X7.9794Y-3.5671
X7.9794Y-3.6762
X7.9794Y-3.7852
X7.9794Y-3.8943
X7.9794Y-4.0033
X7.9794Y-4.1124
X8.0912Y-2.8583
X8.0912Y-2.9673
X8.0912Y-3.0764
X8.0912Y-3.1854
X8.0912Y-3.2945
X8.0912Y-3.4035
X8.0912Y-3.5126
X8.0912Y-3.6217
X8.0912Y-3.7307
X8.0912Y-3.8398
X8.0912Y-3.9488
X8.0912Y-4.0579
X7.189Y-4.209
X7.289Y-4.209
X5.389Y-2.509
X5.489Y-2.509
T4
X7.0216Y-2.2102
X7.4232Y-2.285
T5
X4.048Y-4.098
X4.048Y-4.198
X4.048Y-4.298
X4.048Y-4.398
X4.045Y-3.598
X4.045Y-3.698
X4.045Y-3.798
X4.045Y-3.898
T6
X6.686Y-1.8116
X6.686Y-1.9116
X6.686Y-2.0116
X7.9168Y-1.891
X7.9168Y-2.291
T7
X7.3419Y-1.9116
T8
X7.9912Y-2.5309
X7.9912Y-4.3852
T0
M30
