%TF.GenerationSoftware,KiCad,Pcbnew,(5.1.6)-1*%
%TF.CreationDate,2022-12-14T15:36:46-08:00*%
%TF.ProjectId,Buggly SPD,42756767-6c79-4205-9350-442e6b696361,rev?*%
%TF.SameCoordinates,Original*%
%TF.FileFunction,Legend,Bot*%
%TF.FilePolarity,Positive*%
%FSLAX46Y46*%
G04 Gerber Fmt 4.6, Leading zero omitted, Abs format (unit mm)*
G04 Created by KiCad (PCBNEW (5.1.6)-1) date 2022-12-14 15:36:46*
%MOMM*%
%LPD*%
G01*
G04 APERTURE LIST*
%ADD10C,0.177800*%
%ADD11C,0.150000*%
G04 APERTURE END LIST*
D10*
X158398028Y-39032542D02*
X158180314Y-39105114D01*
X158107742Y-39177685D01*
X158035171Y-39322828D01*
X158035171Y-39540542D01*
X158107742Y-39685685D01*
X158180314Y-39758257D01*
X158325457Y-39830828D01*
X158906028Y-39830828D01*
X158906028Y-38306828D01*
X158398028Y-38306828D01*
X158252885Y-38379400D01*
X158180314Y-38451971D01*
X158107742Y-38597114D01*
X158107742Y-38742257D01*
X158180314Y-38887400D01*
X158252885Y-38959971D01*
X158398028Y-39032542D01*
X158906028Y-39032542D01*
X156728885Y-38814828D02*
X156728885Y-39830828D01*
X157382028Y-38814828D02*
X157382028Y-39613114D01*
X157309457Y-39758257D01*
X157164314Y-39830828D01*
X156946600Y-39830828D01*
X156801457Y-39758257D01*
X156728885Y-39685685D01*
X155350028Y-38814828D02*
X155350028Y-40048542D01*
X155422600Y-40193685D01*
X155495171Y-40266257D01*
X155640314Y-40338828D01*
X155858028Y-40338828D01*
X156003171Y-40266257D01*
X155350028Y-39758257D02*
X155495171Y-39830828D01*
X155785457Y-39830828D01*
X155930600Y-39758257D01*
X156003171Y-39685685D01*
X156075742Y-39540542D01*
X156075742Y-39105114D01*
X156003171Y-38959971D01*
X155930600Y-38887400D01*
X155785457Y-38814828D01*
X155495171Y-38814828D01*
X155350028Y-38887400D01*
X153971171Y-38814828D02*
X153971171Y-40048542D01*
X154043742Y-40193685D01*
X154116314Y-40266257D01*
X154261457Y-40338828D01*
X154479171Y-40338828D01*
X154624314Y-40266257D01*
X153971171Y-39758257D02*
X154116314Y-39830828D01*
X154406600Y-39830828D01*
X154551742Y-39758257D01*
X154624314Y-39685685D01*
X154696885Y-39540542D01*
X154696885Y-39105114D01*
X154624314Y-38959971D01*
X154551742Y-38887400D01*
X154406600Y-38814828D01*
X154116314Y-38814828D01*
X153971171Y-38887400D01*
X153027742Y-39830828D02*
X153172885Y-39758257D01*
X153245457Y-39613114D01*
X153245457Y-38306828D01*
X152592314Y-38814828D02*
X152229457Y-39830828D01*
X151866600Y-38814828D02*
X152229457Y-39830828D01*
X152374600Y-40193685D01*
X152447171Y-40266257D01*
X152592314Y-40338828D01*
X150197457Y-39758257D02*
X149979742Y-39830828D01*
X149616885Y-39830828D01*
X149471742Y-39758257D01*
X149399171Y-39685685D01*
X149326600Y-39540542D01*
X149326600Y-39395400D01*
X149399171Y-39250257D01*
X149471742Y-39177685D01*
X149616885Y-39105114D01*
X149907171Y-39032542D01*
X150052314Y-38959971D01*
X150124885Y-38887400D01*
X150197457Y-38742257D01*
X150197457Y-38597114D01*
X150124885Y-38451971D01*
X150052314Y-38379400D01*
X149907171Y-38306828D01*
X149544314Y-38306828D01*
X149326600Y-38379400D01*
X148673457Y-39830828D02*
X148673457Y-38306828D01*
X148092885Y-38306828D01*
X147947742Y-38379400D01*
X147875171Y-38451971D01*
X147802600Y-38597114D01*
X147802600Y-38814828D01*
X147875171Y-38959971D01*
X147947742Y-39032542D01*
X148092885Y-39105114D01*
X148673457Y-39105114D01*
X147149457Y-39830828D02*
X147149457Y-38306828D01*
X146786600Y-38306828D01*
X146568885Y-38379400D01*
X146423742Y-38524542D01*
X146351171Y-38669685D01*
X146278600Y-38959971D01*
X146278600Y-39177685D01*
X146351171Y-39467971D01*
X146423742Y-39613114D01*
X146568885Y-39758257D01*
X146786600Y-39830828D01*
X147149457Y-39830828D01*
D11*
X125376980Y-39390580D02*
X125376980Y-38390580D01*
X124996028Y-38390580D01*
X124900790Y-38438200D01*
X124853171Y-38485819D01*
X124805552Y-38581057D01*
X124805552Y-38723914D01*
X124853171Y-38819152D01*
X124900790Y-38866771D01*
X124996028Y-38914390D01*
X125376980Y-38914390D01*
X123805552Y-39295342D02*
X123853171Y-39342961D01*
X123996028Y-39390580D01*
X124091266Y-39390580D01*
X124234123Y-39342961D01*
X124329361Y-39247723D01*
X124376980Y-39152485D01*
X124424600Y-38962009D01*
X124424600Y-38819152D01*
X124376980Y-38628676D01*
X124329361Y-38533438D01*
X124234123Y-38438200D01*
X124091266Y-38390580D01*
X123996028Y-38390580D01*
X123853171Y-38438200D01*
X123805552Y-38485819D01*
X123043647Y-38866771D02*
X122900790Y-38914390D01*
X122853171Y-38962009D01*
X122805552Y-39057247D01*
X122805552Y-39200104D01*
X122853171Y-39295342D01*
X122900790Y-39342961D01*
X122996028Y-39390580D01*
X123376980Y-39390580D01*
X123376980Y-38390580D01*
X123043647Y-38390580D01*
X122948409Y-38438200D01*
X122900790Y-38485819D01*
X122853171Y-38581057D01*
X122853171Y-38676295D01*
X122900790Y-38771533D01*
X122948409Y-38819152D01*
X123043647Y-38866771D01*
X123376980Y-38866771D01*
X121186504Y-39390580D02*
X121186504Y-38390580D01*
X121186504Y-39342961D02*
X121281742Y-39390580D01*
X121472219Y-39390580D01*
X121567457Y-39342961D01*
X121615076Y-39295342D01*
X121662695Y-39200104D01*
X121662695Y-38914390D01*
X121615076Y-38819152D01*
X121567457Y-38771533D01*
X121472219Y-38723914D01*
X121281742Y-38723914D01*
X121186504Y-38771533D01*
X120329361Y-39342961D02*
X120424600Y-39390580D01*
X120615076Y-39390580D01*
X120710314Y-39342961D01*
X120757933Y-39247723D01*
X120757933Y-38866771D01*
X120710314Y-38771533D01*
X120615076Y-38723914D01*
X120424600Y-38723914D01*
X120329361Y-38771533D01*
X120281742Y-38866771D01*
X120281742Y-38962009D01*
X120757933Y-39057247D01*
X119900790Y-39342961D02*
X119805552Y-39390580D01*
X119615076Y-39390580D01*
X119519838Y-39342961D01*
X119472219Y-39247723D01*
X119472219Y-39200104D01*
X119519838Y-39104866D01*
X119615076Y-39057247D01*
X119757933Y-39057247D01*
X119853171Y-39009628D01*
X119900790Y-38914390D01*
X119900790Y-38866771D01*
X119853171Y-38771533D01*
X119757933Y-38723914D01*
X119615076Y-38723914D01*
X119519838Y-38771533D01*
X119043647Y-39390580D02*
X119043647Y-38723914D01*
X119043647Y-38390580D02*
X119091266Y-38438200D01*
X119043647Y-38485819D01*
X118996028Y-38438200D01*
X119043647Y-38390580D01*
X119043647Y-38485819D01*
X118138885Y-38723914D02*
X118138885Y-39533438D01*
X118186504Y-39628676D01*
X118234123Y-39676295D01*
X118329361Y-39723914D01*
X118472219Y-39723914D01*
X118567457Y-39676295D01*
X118138885Y-39342961D02*
X118234123Y-39390580D01*
X118424600Y-39390580D01*
X118519838Y-39342961D01*
X118567457Y-39295342D01*
X118615076Y-39200104D01*
X118615076Y-38914390D01*
X118567457Y-38819152D01*
X118519838Y-38771533D01*
X118424600Y-38723914D01*
X118234123Y-38723914D01*
X118138885Y-38771533D01*
X117662695Y-38723914D02*
X117662695Y-39390580D01*
X117662695Y-38819152D02*
X117615076Y-38771533D01*
X117519838Y-38723914D01*
X117376980Y-38723914D01*
X117281742Y-38771533D01*
X117234123Y-38866771D01*
X117234123Y-39390580D01*
X115996028Y-39390580D02*
X115996028Y-38390580D01*
X115996028Y-38771533D02*
X115900790Y-38723914D01*
X115710314Y-38723914D01*
X115615076Y-38771533D01*
X115567457Y-38819152D01*
X115519838Y-38914390D01*
X115519838Y-39200104D01*
X115567457Y-39295342D01*
X115615076Y-39342961D01*
X115710314Y-39390580D01*
X115900790Y-39390580D01*
X115996028Y-39342961D01*
X115186504Y-38723914D02*
X114948409Y-39390580D01*
X114710314Y-38723914D02*
X114948409Y-39390580D01*
X115043647Y-39628676D01*
X115091266Y-39676295D01*
X115186504Y-39723914D01*
X112996028Y-39390580D02*
X113329361Y-38914390D01*
X113567457Y-39390580D02*
X113567457Y-38390580D01*
X113186504Y-38390580D01*
X113091266Y-38438200D01*
X113043647Y-38485819D01*
X112996028Y-38581057D01*
X112996028Y-38723914D01*
X113043647Y-38819152D01*
X113091266Y-38866771D01*
X113186504Y-38914390D01*
X113567457Y-38914390D01*
X112424600Y-39390580D02*
X112519838Y-39342961D01*
X112567457Y-39295342D01*
X112615076Y-39200104D01*
X112615076Y-38914390D01*
X112567457Y-38819152D01*
X112519838Y-38771533D01*
X112424600Y-38723914D01*
X112281742Y-38723914D01*
X112186504Y-38771533D01*
X112138885Y-38819152D01*
X112091266Y-38914390D01*
X112091266Y-39200104D01*
X112138885Y-39295342D01*
X112186504Y-39342961D01*
X112281742Y-39390580D01*
X112424600Y-39390580D01*
X111662695Y-39390580D02*
X111662695Y-38390580D01*
X111662695Y-38771533D02*
X111567457Y-38723914D01*
X111376980Y-38723914D01*
X111281742Y-38771533D01*
X111234123Y-38819152D01*
X111186504Y-38914390D01*
X111186504Y-39200104D01*
X111234123Y-39295342D01*
X111281742Y-39342961D01*
X111376980Y-39390580D01*
X111567457Y-39390580D01*
X111662695Y-39342961D01*
X110376980Y-39342961D02*
X110472219Y-39390580D01*
X110662695Y-39390580D01*
X110757933Y-39342961D01*
X110805552Y-39247723D01*
X110805552Y-38866771D01*
X110757933Y-38771533D01*
X110662695Y-38723914D01*
X110472219Y-38723914D01*
X110376980Y-38771533D01*
X110329361Y-38866771D01*
X110329361Y-38962009D01*
X110805552Y-39057247D01*
X109900790Y-39390580D02*
X109900790Y-38723914D01*
X109900790Y-38914390D02*
X109853171Y-38819152D01*
X109805552Y-38771533D01*
X109710314Y-38723914D01*
X109615076Y-38723914D01*
X109424600Y-38723914D02*
X109043647Y-38723914D01*
X109281742Y-38390580D02*
X109281742Y-39247723D01*
X109234123Y-39342961D01*
X109138885Y-39390580D01*
X109043647Y-39390580D01*
X107948409Y-39390580D02*
X107948409Y-38390580D01*
X107948409Y-38866771D02*
X107376980Y-38866771D01*
X107376980Y-39390580D02*
X107376980Y-38390580D01*
X106900790Y-39390580D02*
X106900790Y-38723914D01*
X106900790Y-38390580D02*
X106948409Y-38438200D01*
X106900790Y-38485819D01*
X106853171Y-38438200D01*
X106900790Y-38390580D01*
X106900790Y-38485819D01*
X106043647Y-39342961D02*
X106138885Y-39390580D01*
X106329361Y-39390580D01*
X106424600Y-39342961D01*
X106472219Y-39247723D01*
X106472219Y-38866771D01*
X106424600Y-38771533D01*
X106329361Y-38723914D01*
X106138885Y-38723914D01*
X106043647Y-38771533D01*
X105996028Y-38866771D01*
X105996028Y-38962009D01*
X106472219Y-39057247D01*
X105567457Y-39390580D02*
X105567457Y-38390580D01*
X105567457Y-38771533D02*
X105472219Y-38723914D01*
X105281742Y-38723914D01*
X105186504Y-38771533D01*
X105138885Y-38819152D01*
X105091266Y-38914390D01*
X105091266Y-39200104D01*
X105138885Y-39295342D01*
X105186504Y-39342961D01*
X105281742Y-39390580D01*
X105472219Y-39390580D01*
X105567457Y-39342961D01*
X104281742Y-39342961D02*
X104376980Y-39390580D01*
X104567457Y-39390580D01*
X104662695Y-39342961D01*
X104710314Y-39247723D01*
X104710314Y-38866771D01*
X104662695Y-38771533D01*
X104567457Y-38723914D01*
X104376980Y-38723914D01*
X104281742Y-38771533D01*
X104234123Y-38866771D01*
X104234123Y-38962009D01*
X104710314Y-39057247D01*
X103805552Y-39390580D02*
X103805552Y-38723914D01*
X103805552Y-38914390D02*
X103757933Y-38819152D01*
X103710314Y-38771533D01*
X103615076Y-38723914D01*
X103519838Y-38723914D01*
X103329361Y-38723914D02*
X102948409Y-38723914D01*
X103186504Y-38390580D02*
X103186504Y-39247723D01*
X103138885Y-39342961D01*
X103043647Y-39390580D01*
X102948409Y-39390580D01*
X101853171Y-39390580D02*
X101853171Y-38390580D01*
X101615076Y-38390580D01*
X101472219Y-38438200D01*
X101376980Y-38533438D01*
X101329361Y-38628676D01*
X101281742Y-38819152D01*
X101281742Y-38962009D01*
X101329361Y-39152485D01*
X101376980Y-39247723D01*
X101472219Y-39342961D01*
X101615076Y-39390580D01*
X101853171Y-39390580D01*
X100472219Y-39342961D02*
X100567457Y-39390580D01*
X100757933Y-39390580D01*
X100853171Y-39342961D01*
X100900790Y-39247723D01*
X100900790Y-38866771D01*
X100853171Y-38771533D01*
X100757933Y-38723914D01*
X100567457Y-38723914D01*
X100472219Y-38771533D01*
X100424600Y-38866771D01*
X100424600Y-38962009D01*
X100900790Y-39057247D01*
X99567457Y-39342961D02*
X99662695Y-39390580D01*
X99853171Y-39390580D01*
X99948409Y-39342961D01*
X99996028Y-39295342D01*
X100043647Y-39200104D01*
X100043647Y-38914390D01*
X99996028Y-38819152D01*
X99948409Y-38771533D01*
X99853171Y-38723914D01*
X99662695Y-38723914D01*
X99567457Y-38771533D01*
X98757933Y-39342961D02*
X98853171Y-39390580D01*
X99043647Y-39390580D01*
X99138885Y-39342961D01*
X99186504Y-39247723D01*
X99186504Y-38866771D01*
X99138885Y-38771533D01*
X99043647Y-38723914D01*
X98853171Y-38723914D01*
X98757933Y-38771533D01*
X98710314Y-38866771D01*
X98710314Y-38962009D01*
X99186504Y-39057247D01*
X98281742Y-39390580D02*
X98281742Y-38723914D01*
X98281742Y-38819152D02*
X98234123Y-38771533D01*
X98138885Y-38723914D01*
X97996028Y-38723914D01*
X97900790Y-38771533D01*
X97853171Y-38866771D01*
X97853171Y-39390580D01*
X97853171Y-38866771D02*
X97805552Y-38771533D01*
X97710314Y-38723914D01*
X97567457Y-38723914D01*
X97472219Y-38771533D01*
X97424600Y-38866771D01*
X97424600Y-39390580D01*
X96948409Y-39390580D02*
X96948409Y-38390580D01*
X96948409Y-38771533D02*
X96853171Y-38723914D01*
X96662695Y-38723914D01*
X96567457Y-38771533D01*
X96519838Y-38819152D01*
X96472219Y-38914390D01*
X96472219Y-39200104D01*
X96519838Y-39295342D01*
X96567457Y-39342961D01*
X96662695Y-39390580D01*
X96853171Y-39390580D01*
X96948409Y-39342961D01*
X95662695Y-39342961D02*
X95757933Y-39390580D01*
X95948409Y-39390580D01*
X96043647Y-39342961D01*
X96091266Y-39247723D01*
X96091266Y-38866771D01*
X96043647Y-38771533D01*
X95948409Y-38723914D01*
X95757933Y-38723914D01*
X95662695Y-38771533D01*
X95615076Y-38866771D01*
X95615076Y-38962009D01*
X96091266Y-39057247D01*
X95186504Y-39390580D02*
X95186504Y-38723914D01*
X95186504Y-38914390D02*
X95138885Y-38819152D01*
X95091266Y-38771533D01*
X94996028Y-38723914D01*
X94900790Y-38723914D01*
X93853171Y-38485819D02*
X93805552Y-38438200D01*
X93710314Y-38390580D01*
X93472219Y-38390580D01*
X93376980Y-38438200D01*
X93329361Y-38485819D01*
X93281742Y-38581057D01*
X93281742Y-38676295D01*
X93329361Y-38819152D01*
X93900790Y-39390580D01*
X93281742Y-39390580D01*
X92662695Y-38390580D02*
X92567457Y-38390580D01*
X92472219Y-38438200D01*
X92424600Y-38485819D01*
X92376980Y-38581057D01*
X92329361Y-38771533D01*
X92329361Y-39009628D01*
X92376980Y-39200104D01*
X92424600Y-39295342D01*
X92472219Y-39342961D01*
X92567457Y-39390580D01*
X92662695Y-39390580D01*
X92757933Y-39342961D01*
X92805552Y-39295342D01*
X92853171Y-39200104D01*
X92900790Y-39009628D01*
X92900790Y-38771533D01*
X92853171Y-38581057D01*
X92805552Y-38485819D01*
X92757933Y-38438200D01*
X92662695Y-38390580D01*
X91948409Y-38485819D02*
X91900790Y-38438200D01*
X91805552Y-38390580D01*
X91567457Y-38390580D01*
X91472219Y-38438200D01*
X91424600Y-38485819D01*
X91376980Y-38581057D01*
X91376980Y-38676295D01*
X91424600Y-38819152D01*
X91996028Y-39390580D01*
X91376980Y-39390580D01*
X90996028Y-38485819D02*
X90948409Y-38438200D01*
X90853171Y-38390580D01*
X90615076Y-38390580D01*
X90519838Y-38438200D01*
X90472219Y-38485819D01*
X90424600Y-38581057D01*
X90424600Y-38676295D01*
X90472219Y-38819152D01*
X91043647Y-39390580D01*
X90424600Y-39390580D01*
X144415447Y-39492180D02*
X144415447Y-38492180D01*
X144082114Y-39206466D01*
X143748780Y-38492180D01*
X143748780Y-39492180D01*
X143320209Y-39206466D02*
X142844019Y-39206466D01*
X143415447Y-39492180D02*
X143082114Y-38492180D01*
X142748780Y-39492180D01*
X142415447Y-39492180D02*
X142415447Y-38492180D01*
X142177352Y-38492180D01*
X142034495Y-38539800D01*
X141939257Y-38635038D01*
X141891638Y-38730276D01*
X141844019Y-38920752D01*
X141844019Y-39063609D01*
X141891638Y-39254085D01*
X141939257Y-39349323D01*
X142034495Y-39444561D01*
X142177352Y-39492180D01*
X142415447Y-39492180D01*
X141415447Y-38968371D02*
X141082114Y-38968371D01*
X140939257Y-39492180D02*
X141415447Y-39492180D01*
X141415447Y-38492180D01*
X140939257Y-38492180D01*
X139415447Y-38968371D02*
X139748780Y-38968371D01*
X139748780Y-39492180D02*
X139748780Y-38492180D01*
X139272590Y-38492180D01*
X138701161Y-38492180D02*
X138510685Y-38492180D01*
X138415447Y-38539800D01*
X138320209Y-38635038D01*
X138272590Y-38825514D01*
X138272590Y-39158847D01*
X138320209Y-39349323D01*
X138415447Y-39444561D01*
X138510685Y-39492180D01*
X138701161Y-39492180D01*
X138796400Y-39444561D01*
X138891638Y-39349323D01*
X138939257Y-39158847D01*
X138939257Y-38825514D01*
X138891638Y-38635038D01*
X138796400Y-38539800D01*
X138701161Y-38492180D01*
X137272590Y-39492180D02*
X137605923Y-39015990D01*
X137844019Y-39492180D02*
X137844019Y-38492180D01*
X137463066Y-38492180D01*
X137367828Y-38539800D01*
X137320209Y-38587419D01*
X137272590Y-38682657D01*
X137272590Y-38825514D01*
X137320209Y-38920752D01*
X137367828Y-38968371D01*
X137463066Y-39015990D01*
X137844019Y-39015990D01*
X136129733Y-39444561D02*
X135986876Y-39492180D01*
X135748780Y-39492180D01*
X135653542Y-39444561D01*
X135605923Y-39396942D01*
X135558304Y-39301704D01*
X135558304Y-39206466D01*
X135605923Y-39111228D01*
X135653542Y-39063609D01*
X135748780Y-39015990D01*
X135939257Y-38968371D01*
X136034495Y-38920752D01*
X136082114Y-38873133D01*
X136129733Y-38777895D01*
X136129733Y-38682657D01*
X136082114Y-38587419D01*
X136034495Y-38539800D01*
X135939257Y-38492180D01*
X135701161Y-38492180D01*
X135558304Y-38539800D01*
X135129733Y-39492180D02*
X135129733Y-38492180D01*
X134748780Y-38492180D01*
X134653542Y-38539800D01*
X134605923Y-38587419D01*
X134558304Y-38682657D01*
X134558304Y-38825514D01*
X134605923Y-38920752D01*
X134653542Y-38968371D01*
X134748780Y-39015990D01*
X135129733Y-39015990D01*
X134129733Y-38968371D02*
X133796400Y-38968371D01*
X133653542Y-39492180D02*
X134129733Y-39492180D01*
X134129733Y-38492180D01*
X133653542Y-38492180D01*
X133224971Y-38968371D02*
X132891638Y-38968371D01*
X132748780Y-39492180D02*
X133224971Y-39492180D01*
X133224971Y-38492180D01*
X132748780Y-38492180D01*
X132320209Y-39492180D02*
X132320209Y-38492180D01*
X132082114Y-38492180D01*
X131939257Y-38539800D01*
X131844019Y-38635038D01*
X131796400Y-38730276D01*
X131748780Y-38920752D01*
X131748780Y-39063609D01*
X131796400Y-39254085D01*
X131844019Y-39349323D01*
X131939257Y-39444561D01*
X132082114Y-39492180D01*
X132320209Y-39492180D01*
X131320209Y-38492180D02*
X131320209Y-39301704D01*
X131272590Y-39396942D01*
X131224971Y-39444561D01*
X131129733Y-39492180D01*
X130939257Y-39492180D01*
X130844019Y-39444561D01*
X130796400Y-39396942D01*
X130748780Y-39301704D01*
X130748780Y-38492180D01*
X130272590Y-39492180D02*
X130272590Y-38492180D01*
X129796400Y-39492180D02*
X129796400Y-38492180D01*
X129224971Y-39492180D01*
X129224971Y-38492180D01*
X128558304Y-38492180D02*
X128367828Y-38492180D01*
X128272590Y-38539800D01*
X128177352Y-38635038D01*
X128129733Y-38825514D01*
X128129733Y-39158847D01*
X128177352Y-39349323D01*
X128272590Y-39444561D01*
X128367828Y-39492180D01*
X128558304Y-39492180D01*
X128653542Y-39444561D01*
X128748780Y-39349323D01*
X128796400Y-39158847D01*
X128796400Y-38825514D01*
X128748780Y-38635038D01*
X128653542Y-38539800D01*
X128558304Y-38492180D01*
M02*
