M48
; DRILL file {KiCad (5.1.6)-1} date 12/14/22 15:36:49
; FORMAT={-:-/ absolute / inch / decimal}
; #@! TF.CreationDate,2022-12-14T15:36:49-08:00
; #@! TF.GenerationSoftware,Kicad,Pcbnew,(5.1.6)-1
; #@! TF.FileFunction,Plated,1,2,PTH
FMAT,2
INCH
T1C0.0157
T2C0.0315
T3C0.0394
T4C0.0398
T5C0.0400
T6C0.0433
T7C0.1150
T8C0.1260
%
G90
G05
T1
X3.559Y-4.51
X3.566Y-2.599
X3.622Y-5.36
X3.636Y-1.599
X3.6575Y-4.1155
X3.718Y-3.541
X3.791Y-5.146
X3.8055Y-2.8935
X3.872Y-3.796
X3.872Y-4.29
X3.873Y-4.651
X3.877Y-4.916
X3.885Y-4.484
X3.921Y-4.204
X3.948Y-4.555
X4.047Y-4.966
X4.064Y-3.486
X4.083Y-5.275
X4.121Y-4.484
X4.19Y-3.275
X4.2025Y-3.18
X4.225Y-2.261
X4.237Y-5.136
X4.257Y-4.65
X4.286Y-3.478
X4.3065Y-2.613
X4.374Y-2.931
X4.45Y-2.337
X4.496Y-4.274
X4.512Y-4.648
X4.53Y-5.132
X4.535Y-4.102
X4.58Y-3.079
X4.594Y-4.394
X4.712Y-4.482
X4.713Y-2.025
X4.713Y-2.249
X4.804Y-5.008
X4.888Y-4.406
X4.985Y-4.218
X5.017Y-4.555
X5.074Y-5.242
X5.094Y-4.904
X5.256Y-2.425
X5.308Y-4.412
X5.422Y-5.038
X5.433Y-4.809
X5.439Y-4.087
X5.464Y-3.103
X5.479Y-1.574
X5.512Y-4.615
X5.674Y-2.302
X5.719Y-2.216
X5.776Y-5.138
X5.787Y-4.493
X5.828Y-2.322
X5.838Y-4.102
X5.868Y-4.33
X5.881Y-4.607
X5.931Y-2.212
X5.958Y-2.957
X5.986Y-3.596
X6.08Y-4.866
X6.102Y-5.074
X6.128Y-5.268
X6.382Y-3.578
X6.416Y-4.888
X6.426Y-5.138
X6.43Y-5.018
X6.4538Y-2.5618
X6.4538Y-3.0218
X6.571Y-2.156
X6.608Y-4.426
X6.688Y-3.077
X6.688Y-3.456
X6.696Y-1.564
X6.832Y-5.166
X6.865Y-3.078
X6.924Y-3.025
X6.952Y-3.461
X6.977Y-3.681
X7.002Y-3.127
X7.091Y-5.014
X7.125Y-4.882
X7.127Y-3.641
X7.145Y-3.212
X7.2373Y-3.6217
X7.272Y-2.882
X7.2734Y-3.5126
X7.31Y-4.638
X7.355Y-4.576
X7.372Y-3.291
X7.389Y-3.945
X7.407Y-4.352
X7.422Y-4.949
X7.4389Y-3.5671
X7.439Y-3.895
X7.462Y-5.264
X7.487Y-3.838
X7.531Y-3.786
X7.537Y-5.164
X7.579Y-3.126
X7.5823Y-3.7307
X7.5846Y-4.1124
X7.5961Y-4.0579
X7.627Y-2.68
X7.627Y-3.674
X7.675Y-3.077
X7.721Y-3.021
X7.757Y-4.709
X7.767Y-5.164
X7.7677Y-2.9673
X7.782Y-5.039
X7.792Y-4.914
X7.816Y-2.914
X7.824Y-4.194
X8.004Y-4.263
X8.035Y-1.578
X8.116Y-2.68
X8.145Y-4.144
T2
X4.8695Y-1.8975
X5.1695Y-1.8975
X3.661Y-1.892
X3.961Y-1.892
X4.295Y-4.3176
X4.295Y-4.416
X4.931Y-4.752
X5.0294Y-4.752
X6.29Y-5.136
X6.59Y-5.136
X4.578Y-1.773
X4.578Y-2.073
X5.614Y-4.882
X5.914Y-4.882
X7.7368Y-2.0174
X7.7368Y-2.1158
X4.8695Y-2.1455
X5.1695Y-2.1455
X6.095Y-1.775
X6.1934Y-1.775
X6.094Y-1.897
X6.1924Y-1.897
X4.942Y-5.0
X5.242Y-5.0
X7.641Y-5.266
X7.7394Y-5.266
X3.669Y-5.149
X3.969Y-5.149
X5.687Y-3.454
X5.687Y-3.754
X5.787Y-3.454
X5.787Y-3.754
X5.887Y-3.454
X5.887Y-3.754
X5.987Y-3.454
X5.987Y-3.754
X8.0518Y-2.1856
X8.1305Y-1.8903
X3.669Y-4.909
X3.969Y-4.909
X6.115Y-3.4486
X6.115Y-3.547
X6.633Y-3.304
X6.733Y-3.304
X6.833Y-3.304
X6.29Y-5.258
X6.3884Y-5.258
X4.295Y-4.096
X4.295Y-4.1944
X6.092Y-2.151
X6.1904Y-2.151
X6.953Y-5.135
X7.253Y-5.135
X3.7205Y-2.3625
X4.0205Y-2.3625
X3.662Y-2.137
X3.962Y-2.137
X4.164Y-3.596
X4.164Y-3.896
X3.669Y-5.029
X3.969Y-5.029
X5.8286Y-4.759
X5.927Y-4.759
X6.944Y-3.298
X6.944Y-3.598
X6.944Y-5.259
X7.0424Y-5.259
X6.092Y-2.274
X6.1904Y-2.274
X4.939Y-4.88
X5.239Y-4.88
X5.257Y-1.7765
X5.257Y-1.8765
X5.257Y-1.9765
X5.257Y-2.0765
X5.557Y-1.7765
X5.557Y-1.8765
X5.557Y-1.9765
X5.557Y-2.0765
X4.456Y-1.773
X4.456Y-2.073
X4.171Y-4.099
X4.171Y-4.399
X5.1526Y-4.752
X5.251Y-4.752
X6.535Y-3.584
X6.835Y-3.584
X6.4342Y-1.7955
X6.4342Y-1.9924
X4.8695Y-1.774
X5.1695Y-1.774
X3.6615Y-1.7705
X3.9615Y-1.7705
X3.8806Y-5.269
X3.979Y-5.269
X5.607Y-4.759
X5.7054Y-4.759
X5.615Y-5.005
X5.915Y-5.005
X3.7225Y-2.4855
X4.0225Y-2.4855
X7.646Y-5.145
X7.946Y-5.145
X7.1646Y-5.258
X7.263Y-5.258
X7.7248Y-1.7769
X7.7248Y-1.8556
X6.536Y-3.455
X6.836Y-3.455
X3.7025Y-2.982
X3.7025Y-3.282
X3.8245Y-2.9825
X3.8245Y-3.2825
X3.659Y-5.269
X3.7574Y-5.269
X5.784Y-1.7775
X5.784Y-2.0775
X3.7055Y-2.5935
X3.7055Y-2.8935
X3.8055Y-2.5935
X3.8055Y-2.8935
X3.9055Y-2.5935
X3.9055Y-2.8935
X4.0055Y-2.5935
X4.0055Y-2.8935
X3.662Y-2.015
X3.962Y-2.015
X4.645Y-4.98
X4.645Y-5.28
X3.9465Y-2.9825
X3.9465Y-3.2825
X4.0685Y-2.9825
X4.0685Y-3.2825
X4.8695Y-2.0215
X5.1695Y-2.0215
X4.285Y-3.8156
X4.285Y-3.914
X4.285Y-3.596
X4.285Y-3.6944
X5.663Y-1.7775
X5.663Y-2.0775
X4.0495Y-1.772
X4.0495Y-1.872
X4.0495Y-1.972
X4.0495Y-2.072
X4.3495Y-1.772
X4.3495Y-1.872
X4.3495Y-1.972
X4.3495Y-2.072
X7.8606Y-5.268
X7.959Y-5.268
X6.221Y-3.758
X6.221Y-4.058
X6.321Y-3.758
X6.321Y-4.058
X6.421Y-3.758
X6.421Y-4.058
X6.521Y-3.758
X6.521Y-4.058
X6.621Y-3.758
X6.621Y-4.058
X6.721Y-3.758
X6.721Y-4.058
X6.821Y-3.758
X6.821Y-4.058
X6.921Y-3.758
X6.921Y-4.058
X6.6634Y-2.1952
X6.7618Y-2.1952
X6.5116Y-5.258
X6.61Y-5.258
X4.525Y-4.98
X4.525Y-5.28
T3
X5.029Y-2.509
X5.129Y-2.509
X5.389Y-2.509
X5.489Y-2.509
X4.989Y-4.409
X5.089Y-4.409
X5.189Y-4.409
X6.389Y-4.409
X6.689Y-2.509
X7.189Y-4.209
X7.289Y-4.209
X4.355Y-4.855
X4.355Y-5.0519
X4.529Y-2.509
X7.289Y-3.709
X4.789Y-4.409
X5.489Y-4.409
X5.589Y-4.409
X5.689Y-4.409
X5.789Y-4.409
X5.889Y-4.409
X5.989Y-4.409
X6.089Y-4.409
X7.289Y-3.909
X7.9794Y-2.8037
X7.9794Y-2.9128
X7.9794Y-3.0218
X7.9794Y-3.1309
X7.9794Y-3.24
X7.9794Y-3.349
X7.9794Y-3.4581
X7.9794Y-3.5671
X7.9794Y-3.6762
X7.9794Y-3.7852
X7.9794Y-3.8943
X7.9794Y-4.0033
X7.9794Y-4.1124
X8.0912Y-2.8583
X8.0912Y-2.9673
X8.0912Y-3.0764
X8.0912Y-3.1854
X8.0912Y-3.2945
X8.0912Y-3.4035
X8.0912Y-3.5126
X8.0912Y-3.6217
X8.0912Y-3.7307
X8.0912Y-3.8398
X8.0912Y-3.9488
X8.0912Y-4.0579
X7.189Y-2.509
X7.289Y-2.509
X7.189Y-3.409
X7.189Y-3.509
X4.535Y-4.87
X4.635Y-4.87
X7.9222Y-1.7618
T4
X7.0216Y-2.2102
X7.4232Y-2.285
T5
X4.045Y-3.598
X4.045Y-3.698
X4.045Y-3.798
X4.045Y-3.898
X4.048Y-4.098
X4.048Y-4.198
X4.048Y-4.298
X4.048Y-4.398
T6
X6.236Y-4.884
X6.636Y-4.884
X6.686Y-1.8116
X6.686Y-1.9116
X6.686Y-2.0116
X5.569Y-5.262
X5.969Y-5.262
X6.902Y-5.008
X7.302Y-5.008
X4.886Y-5.127
X5.286Y-5.127
X4.885Y-5.259
X5.285Y-5.259
X7.59Y-5.02
X7.99Y-5.02
X5.675Y-3.325
X6.075Y-3.325
X7.9168Y-1.891
X7.9168Y-2.291
X6.235Y-5.012
X6.635Y-5.012
X5.57Y-5.131
X5.97Y-5.131
X7.589Y-4.89
X7.989Y-4.89
X3.622Y-4.65
X4.022Y-4.65
X6.902Y-4.877
X7.302Y-4.877
X3.621Y-4.781
X4.021Y-4.781
X5.675Y-3.197
X6.075Y-3.197
T7
X7.3419Y-1.9116
T8
X7.9912Y-2.5309
X7.9912Y-4.3852
T0
M30
