%TF.GenerationSoftware,KiCad,Pcbnew,(5.1.6)-1*%
%TF.CreationDate,2022-12-14T15:36:46-08:00*%
%TF.ProjectId,Buggly SPD,42756767-6c79-4205-9350-442e6b696361,rev?*%
%TF.SameCoordinates,Original*%
%TF.FileFunction,Soldermask,Bot*%
%TF.FilePolarity,Negative*%
%FSLAX46Y46*%
G04 Gerber Fmt 4.6, Leading zero omitted, Abs format (unit mm)*
G04 Created by KiCad (PCBNEW (5.1.6)-1) date 2022-12-14 15:36:46*
%MOMM*%
%LPD*%
G01*
G04 APERTURE LIST*
%ADD10O,1.700000X1.700000*%
%ADD11C,1.700000*%
%ADD12O,1.800000X1.800000*%
%ADD13R,1.800000X1.800000*%
%ADD14O,2.300000X2.300000*%
%ADD15R,2.300000X2.300000*%
%ADD16C,1.878000*%
%ADD17R,1.878000X1.878000*%
%ADD18R,1.700000X1.700000*%
%ADD19R,1.600000X1.600000*%
%ADD20C,1.600000*%
%ADD21C,4.100000*%
%ADD22C,1.900000*%
%ADD23C,1.660000*%
%ADD24C,1.800000*%
%ADD25O,2.100000X2.005000*%
%ADD26R,2.100000X2.005000*%
%ADD27C,3.148000*%
%ADD28C,2.100000*%
G04 APERTURE END LIST*
D10*
%TO.C,R35*%
X113182400Y-52654200D03*
D11*
X113182400Y-45034200D03*
%TD*%
D10*
%TO.C,R27*%
X93014800Y-54279800D03*
D11*
X100634800Y-54279800D03*
%TD*%
D10*
%TO.C,R16*%
X93014800Y-51181000D03*
D11*
X100634800Y-51181000D03*
%TD*%
D10*
%TO.C,R9*%
X201828400Y-130683000D03*
D11*
X194208400Y-130683000D03*
%TD*%
D12*
%TO.C,J6*%
X154660600Y-111988600D03*
X152120600Y-111988600D03*
X149580600Y-111988600D03*
X147040600Y-111988600D03*
X144500600Y-111988600D03*
X141960600Y-111988600D03*
D13*
X139420600Y-111988600D03*
%TD*%
D12*
%TO.C,J5*%
X139420600Y-63728600D03*
D13*
X136880600Y-63728600D03*
%TD*%
D14*
%TO.C,D13*%
X202920600Y-124206000D03*
D15*
X192760600Y-124206000D03*
%TD*%
D14*
%TO.C,D10*%
X202946000Y-127508000D03*
D15*
X192786000Y-127508000D03*
%TD*%
D11*
%TO.C,C13*%
X196581400Y-133756400D03*
X194081400Y-133756400D03*
%TD*%
%TO.C,C9*%
X199658600Y-133807200D03*
X202158600Y-133807200D03*
%TD*%
D14*
%TO.C,D8*%
X102133400Y-121437400D03*
D15*
X91973400Y-121437400D03*
%TD*%
D14*
%TO.C,D4*%
X102158800Y-118110000D03*
D15*
X91998800Y-118110000D03*
%TD*%
D16*
%TO.C,U2*%
X102819200Y-104089200D03*
X102819200Y-106629200D03*
X102819200Y-109169200D03*
D17*
X102819200Y-111709200D03*
%TD*%
D16*
%TO.C,U1*%
X102743000Y-91389200D03*
X102743000Y-93929200D03*
X102743000Y-96469200D03*
D17*
X102743000Y-99009200D03*
%TD*%
D10*
%TO.C,R6*%
X105943400Y-104114600D03*
D11*
X105943400Y-111734600D03*
%TD*%
D10*
%TO.C,R5*%
X105765600Y-91338400D03*
D11*
X105765600Y-98958400D03*
%TD*%
D10*
%TO.C,R4*%
X100812600Y-130784600D03*
D11*
X93192600Y-130784600D03*
%TD*%
D10*
%TO.C,R2*%
X93192600Y-127736600D03*
D11*
X100812600Y-127736600D03*
%TD*%
D10*
%TO.C,R1*%
X100812600Y-124688600D03*
D11*
X93192600Y-124688600D03*
%TD*%
D12*
%TO.C,J13*%
X185140600Y-106908600D03*
D13*
X182600600Y-106908600D03*
%TD*%
%TO.C,J12*%
X185140600Y-99288600D03*
%TD*%
%TO.C,J11*%
X185140600Y-94208600D03*
%TD*%
D12*
%TO.C,J10*%
X182600600Y-89128600D03*
D13*
X182600600Y-86588600D03*
%TD*%
D12*
%TO.C,J9*%
X185140600Y-63728600D03*
D13*
X182600600Y-63728600D03*
%TD*%
%TO.C,J8*%
X162280600Y-111988600D03*
%TD*%
%TO.C,J7*%
X169900600Y-63728600D03*
%TD*%
D12*
%TO.C,J4*%
X131800600Y-111988600D03*
X129260600Y-111988600D03*
D13*
X126720600Y-111988600D03*
%TD*%
D12*
%TO.C,J3*%
X130276600Y-63728600D03*
D13*
X127736600Y-63728600D03*
%TD*%
%TO.C,J2*%
X121640600Y-111988600D03*
%TD*%
%TO.C,J1*%
X115036600Y-63728600D03*
%TD*%
D11*
%TO.C,C16*%
X162266000Y-133553200D03*
X159766000Y-133553200D03*
%TD*%
%TO.C,C15*%
X144917800Y-120878600D03*
X142417800Y-120878600D03*
%TD*%
%TO.C,C14*%
X127747400Y-120700800D03*
X125247400Y-120700800D03*
%TD*%
%TO.C,C8*%
X109093000Y-109666400D03*
X109093000Y-112166400D03*
%TD*%
%TO.C,C7*%
X108839000Y-96915600D03*
X108839000Y-99415600D03*
%TD*%
%TO.C,C6*%
X95438600Y-133832600D03*
X92938600Y-133832600D03*
%TD*%
%TO.C,C5*%
X178877600Y-133578600D03*
X176377600Y-133578600D03*
%TD*%
%TO.C,C4*%
X98566600Y-133832600D03*
X101066600Y-133832600D03*
%TD*%
%TO.C,C2*%
X109093000Y-106538400D03*
X109093000Y-104038400D03*
%TD*%
%TO.C,C1*%
X108839000Y-93838400D03*
X108839000Y-91338400D03*
%TD*%
D10*
%TO.C,R34*%
X92989400Y-48056800D03*
D11*
X100609400Y-48056800D03*
%TD*%
D10*
%TO.C,R33*%
X123685300Y-54495700D03*
D11*
X131305300Y-54495700D03*
%TD*%
D10*
%TO.C,R32*%
X123685300Y-48196500D03*
D11*
X131305300Y-48196500D03*
%TD*%
D10*
%TO.C,R31*%
X103339900Y-83375500D03*
D11*
X103339900Y-75755500D03*
%TD*%
D10*
%TO.C,R30*%
X97142300Y-83375500D03*
D11*
X97142300Y-75755500D03*
%TD*%
D10*
%TO.C,R29*%
X123685300Y-51346100D03*
D11*
X131305300Y-51346100D03*
%TD*%
D10*
%TO.C,R28*%
X131305300Y-45059600D03*
D11*
X123685300Y-45059600D03*
%TD*%
D10*
%TO.C,R26*%
X100622100Y-44970700D03*
D11*
X93002100Y-44970700D03*
%TD*%
D10*
%TO.C,R25*%
X100241100Y-83375500D03*
D11*
X100241100Y-75755500D03*
%TD*%
D10*
%TO.C,R24*%
X94043500Y-75742800D03*
D11*
X94043500Y-83362800D03*
%TD*%
D14*
%TO.C,D12*%
X185470800Y-123875800D03*
D15*
X175310800Y-123875800D03*
%TD*%
D14*
%TO.C,D9*%
X185470800Y-127203200D03*
D15*
X175310800Y-127203200D03*
%TD*%
D14*
%TO.C,D7*%
X168529000Y-127304800D03*
D15*
X158369000Y-127304800D03*
%TD*%
D14*
%TO.C,D6*%
X151612600Y-133654800D03*
D15*
X141452600Y-133654800D03*
%TD*%
D14*
%TO.C,D5*%
X134264400Y-130225800D03*
D15*
X124104400Y-130225800D03*
%TD*%
D14*
%TO.C,D3*%
X168554400Y-124053600D03*
D15*
X158394400Y-124053600D03*
%TD*%
D14*
%TO.C,D2*%
X151638000Y-130327400D03*
D15*
X141478000Y-130327400D03*
%TD*%
D14*
%TO.C,D1*%
X134239000Y-133578600D03*
D15*
X124079000Y-133578600D03*
%TD*%
D11*
%TO.C,C21*%
X157287600Y-48183800D03*
X154787600Y-48183800D03*
%TD*%
%TO.C,C20*%
X157236800Y-57759600D03*
X154736800Y-57759600D03*
%TD*%
%TO.C,C19*%
X157236800Y-54635400D03*
X154736800Y-54635400D03*
%TD*%
%TO.C,C18*%
X157313000Y-45085000D03*
X154813000Y-45085000D03*
%TD*%
D10*
%TO.C,U3*%
X141147800Y-45123100D03*
X133527800Y-52743100D03*
X141147800Y-47663100D03*
X133527800Y-50203100D03*
X141147800Y-50203100D03*
X133527800Y-47663100D03*
X141147800Y-52743100D03*
D18*
X133527800Y-45123100D03*
%TD*%
D10*
%TO.C,R15*%
X116281200Y-45034200D03*
D11*
X116281200Y-52654200D03*
%TD*%
D10*
%TO.C,R14*%
X143840200Y-52768500D03*
D11*
X143840200Y-45148500D03*
%TD*%
D10*
%TO.C,R13*%
X146913600Y-45148500D03*
D11*
X146913600Y-52768500D03*
%TD*%
D10*
%TO.C,U4*%
X110477300Y-45008800D03*
X102857300Y-52628800D03*
X110477300Y-47548800D03*
X102857300Y-50088800D03*
X110477300Y-50088800D03*
X102857300Y-47548800D03*
X110477300Y-52628800D03*
D18*
X102857300Y-45008800D03*
%TD*%
D10*
%TO.C,U5*%
X94119700Y-65874900D03*
X101739700Y-73494900D03*
X96659700Y-65874900D03*
X99199700Y-73494900D03*
X99199700Y-65874900D03*
X96659700Y-73494900D03*
X101739700Y-65874900D03*
D18*
X94119700Y-73494900D03*
%TD*%
D10*
%TO.C,R21*%
X102171500Y-63131700D03*
D11*
X94551500Y-63131700D03*
%TD*%
D10*
%TO.C,R20*%
X94500700Y-60007500D03*
D11*
X102120700Y-60007500D03*
%TD*%
D10*
%TO.C,R12*%
X167386000Y-130454400D03*
D11*
X159766000Y-130454400D03*
%TD*%
D10*
%TO.C,R11*%
X150241000Y-127127000D03*
D11*
X142621000Y-127127000D03*
%TD*%
D10*
%TO.C,R10*%
X133146800Y-127000000D03*
D11*
X125526800Y-127000000D03*
%TD*%
D10*
%TO.C,R8*%
X142595600Y-124002800D03*
D11*
X150215600Y-124002800D03*
%TD*%
D10*
%TO.C,R7*%
X125450600Y-123952000D03*
D11*
X133070600Y-123952000D03*
%TD*%
D10*
%TO.C,R3*%
X184226200Y-130429000D03*
D11*
X176606200Y-130429000D03*
%TD*%
%TO.C,C12*%
X165394000Y-133553200D03*
X167894000Y-133553200D03*
%TD*%
%TO.C,C11*%
X148045800Y-120878600D03*
X150545800Y-120878600D03*
%TD*%
%TO.C,C10*%
X130875400Y-120700800D03*
X133375400Y-120700800D03*
%TD*%
%TO.C,C3*%
X181980200Y-133553200D03*
X184480200Y-133553200D03*
%TD*%
D10*
%TO.C,IC1*%
X144449800Y-87731600D03*
X152069800Y-95351600D03*
X146989800Y-87731600D03*
X149529800Y-95351600D03*
X149529800Y-87731600D03*
X146989800Y-95351600D03*
X152069800Y-87731600D03*
D18*
X144449800Y-95351600D03*
%TD*%
D14*
%TO.C,D14*%
X154305000Y-84455000D03*
D15*
X144145000Y-84455000D03*
%TD*%
D14*
%TO.C,D11*%
X154305000Y-81203800D03*
D15*
X144145000Y-81203800D03*
%TD*%
D11*
%TO.C,C17*%
X155321000Y-87593800D03*
X155321000Y-90093800D03*
%TD*%
%TO.C,C24*%
X196514720Y-53741960D03*
X196514720Y-51241960D03*
%TD*%
D10*
%TO.C,U6*%
X158013400Y-95453200D03*
X175793400Y-103073200D03*
X160553400Y-95453200D03*
X173253400Y-103073200D03*
X163093400Y-95453200D03*
X170713400Y-103073200D03*
X165633400Y-95453200D03*
X168173400Y-103073200D03*
X168173400Y-95453200D03*
X165633400Y-103073200D03*
X170713400Y-95453200D03*
X163093400Y-103073200D03*
X173253400Y-95453200D03*
X160553400Y-103073200D03*
X175793400Y-95453200D03*
D18*
X158013400Y-103073200D03*
%TD*%
D10*
%TO.C,R19*%
X176377600Y-83769200D03*
D11*
X176377600Y-91389200D03*
%TD*%
D10*
%TO.C,R18*%
X173609000Y-91033600D03*
D11*
X165989000Y-91033600D03*
%TD*%
D10*
%TO.C,R17*%
X166014400Y-87757000D03*
D11*
X173634400Y-87757000D03*
%TD*%
D19*
%TO.C,Q1*%
X168478200Y-83921600D03*
D20*
X173558200Y-83921600D03*
X171018200Y-83921600D03*
%TD*%
D21*
%TO.C,J15*%
X202976760Y-64284960D03*
X202976760Y-111384960D03*
D11*
X205516760Y-72599960D03*
X205516760Y-75369960D03*
X205516760Y-78139960D03*
X205516760Y-80909960D03*
X205516760Y-83679960D03*
X205516760Y-86449960D03*
X205516760Y-89219960D03*
X205516760Y-91989960D03*
X205516760Y-94759960D03*
X205516760Y-97529960D03*
X205516760Y-100299960D03*
X205516760Y-103069960D03*
X202676760Y-71214960D03*
X202676760Y-73984960D03*
X202676760Y-76754960D03*
X202676760Y-79524960D03*
X202676760Y-82294960D03*
X202676760Y-85064960D03*
X202676760Y-87834960D03*
X202676760Y-90604960D03*
X202676760Y-93374960D03*
X202676760Y-96144960D03*
X202676760Y-98914960D03*
X202676760Y-101684960D03*
D18*
X202676760Y-104454960D03*
%TD*%
D22*
%TO.C,RV1*%
X206515720Y-48014240D03*
X204515720Y-55514240D03*
%TD*%
D23*
%TO.C,F1*%
X188549280Y-58039000D03*
X178349280Y-56139000D03*
%TD*%
D14*
%TO.C,D17*%
X201086720Y-58191400D03*
D15*
X201086720Y-48031400D03*
%TD*%
D24*
%TO.C,J8*%
X201223880Y-44749720D03*
%TD*%
D25*
%TO.C,U7*%
X169824400Y-51094640D03*
X169824400Y-48554640D03*
D26*
X169824400Y-46014640D03*
D27*
X186484400Y-48554640D03*
%TD*%
D10*
%TO.C,R23*%
X114935000Y-134112000D03*
D11*
X114935000Y-126492000D03*
%TD*%
D10*
%TO.C,R22*%
X117983000Y-134112000D03*
D11*
X117983000Y-126492000D03*
%TD*%
D12*
%TO.C,JP1*%
X117729000Y-123698000D03*
D13*
X115189000Y-123698000D03*
%TD*%
D11*
%TO.C,C26*%
X163428680Y-45606960D03*
D18*
X163428680Y-50606960D03*
%TD*%
D11*
%TO.C,C25*%
X169249720Y-55758080D03*
X171749720Y-55758080D03*
%TD*%
D28*
%TO.C,C22*%
X110617000Y-128317000D03*
X110617000Y-123317000D03*
%TD*%
D11*
%TO.C,C23*%
X196209920Y-45132240D03*
D18*
X196209920Y-47132240D03*
%TD*%
M02*
